# xmcd
#
# Track frame offsets:
#	150
#	3160
#	17756
#	29808
#	47607
#	63742
#	82811
#	97239
#	114657
#	135688
#
# Disc length: 2159 seconds
#
# Revision: 0
# Processed by: cddbd v1.5.2PL0 Copyright (c) Steve Scherf et al.
# Submitted via: dBpowerAMP V4.0
#
DISCID=82086d0a
DTITLE=Crystal Tears - Choirs Of Immortal
DYEAR=2006
DGENRE=Thrash Metal
TTITLE0=Alpha and omega
TTITLE1=Sworn to avenge
TTITLE2=Nightmare terror
TTITLE3=Rock survivors
TTITLE4=Master of deception
TTITLE5=Megas Alexandros
TTITLE6=Stealer of minds
TTITLE7=When the night is cold
TTITLE8=And the arrows fall
TTITLE9=Legends never die
EXTD=
EXTT0=
EXTT1=
EXTT2=
EXTT3=
EXTT4=
EXTT5=
EXTT6=
EXTT7=
EXTT8=
EXTT9=
PLAYORDER=
